<svg id="Layer_2" data-name="Layer 2" xmlns="http://www.w3.org/2000/svg" xmlns:xlink="http://www.w3.org/1999/xlink" viewBox="0 0 374.55 465.62"><defs><style>.cls-1{fill:#1f3a47;}.cls-2{fill:#e4b430;}.cls-3{fill:url(#linear-gradient);}</style><linearGradient id="linear-gradient" x1="261.97" y1="168.28" x2="264.77" y2="282.16" gradientUnits="userSpaceOnUse"><stop offset="0" stop-color="#98c07a"/><stop offset="1" stop-color="#467559"/></linearGradient></defs><path class="cls-1" d="M451.74,366.55A33.11,33.11,0,0,0,449.22,354c-5.14-12.61-14.29-21.77-25.23-29.35-2.35-1.63-3.06-3-1.89-6A87.43,87.43,0,0,0,428,292.32c1.22-17.86-1.45-35-9.64-51-9.3-18.17-23-32.54-39.34-44.59-16.83-12.42-35.51-21.7-53.63-32a221.69,221.69,0,0,1-26.26-17H230.75c-12.73,9.95-27,17.54-41.16,25.27-22.53,12.3-44.58,25.14-61.88,44.68C111.18,236.34,102,257.93,101.37,283A88.47,88.47,0,0,0,108,319.18c1,2.43.56,3.66-1.67,5.08a77.85,77.85,0,0,0-13.57,11.31,55.66,55.66,0,0,0-10,13.6v69.24H222.5q20,19.44,39.82,39.09c2,2,3,1.91,5-.07,13.32-13.06,26.76-26,40.12-39H451.77Q451.73,392.49,451.74,366.55Z" transform="translate(-77.79 -26.95)"/><path class="cls-1" d="M343.65,376.41v42h-1.6c-.93.94-1.88,1.89-2.85,2.81-17.6,16.8-34.51,34.3-51.89,51.33H243.07c-16.13-15.73-32.35-31.39-48.26-47.32V389.58c.14.22.28.43.43.64,5.34,7.75,12.48,13.88,19.2,20.39,2.69,2.59,5.38,5.2,8.06,7.8q20,19.44,39.82,39.09c2,2,3,1.91,5-.07,13.32-13.06,26.76-26,40.12-39q10-9.74,19.91-19.54c6.69-6.63,11.66-14.06,14.25-22.46Z" transform="translate(-77.79 -26.95)"/><path class="cls-2" d="M448.9,436.44c-33.9-.31-67.74.43-101.62-.21,5.61-6,11.16-11.51,15.69-17.82,2-2.76,3.55-7.22,7.66-6,16.87-.12,33.75-.27,50.61-.17,3.71,0,5.14-.76,5-4.85-1.16-42.74,7.75-53.89-35.66-76.41,19.51-28.92,18.09-68.18-4.4-95.06-32.08-39.8-88.17-48.63-120.34-88.24-.79-.87-1.88-.14-2.5.79-20.83,26-52.93,38.09-80.54,55.17-46.28,23.37-76,80.4-43.72,127.27-43.42,23.43-34.13,33.79-35.47,77.13-.1,3.71,1.12,4.5,4.58,4.46,16.58-.21,33.15-.1,49.73-.31,4.52-.38,6.82,2.59,8.93,6.18,4.4,6.38,10.19,11.74,16.1,17.94-34,.06-66.78-.08-100.64.18-3.69,0-4.44-1-4.41-4.54.18-19.76.53-39.52-.08-59.26-1.08-20.94,12.1-37.53,28.64-48.47,2.23-1.42,2.66-2.65,1.66-5.08C81.44,254.66,134.45,198.44,189.73,173c25-13.66,52-28,66.81-53.42,1.32-2.39,1.65-3.57-1.57-4.86-48.35-16.59-34-93.53,18.37-87.41-50.22,25.79-7.94,92.93,37.07,57-.5,14.1-15.59,27-37.79,32.25C302.16,173.36,389,177.76,418.48,241.27c12,23.79,13.21,52.53,3.76,77.39-1.18,2.93-.47,4.33,1.89,6,37.8,24.12,26,55.82,27.77,93.79C451,422.45,454.56,437.33,448.9,436.44Z" transform="translate(-77.79 -26.95)"/><path class="cls-3" d="M163.3,318.46C123,233.22,221.64,218.39,263.36,172.08c1.1-1.22,1.54-1.7,2.82-.2,15.72,18.48,37,29.35,57.2,41.74,40,20.6,67.55,61.09,43.36,104.88-26.61-25-67.42-26.68-98.55-9.45a5.52,5.52,0,0,1-6.13.05C230.18,291.64,190.88,293.77,163.3,318.46Z" transform="translate(-77.79 -26.95)"/><path class="cls-2" d="M366.81,357.26c-1.2-49.76-67.1-61.21-98.93-30.86-2.76,2.26-4,1.66-6.23-.29a64.76,64.76,0,0,0-44.55-16.52c-68.95,0-66.35,83.18-22.29,115.64,15.91,15.93,32.13,31.59,48.26,47.32q9.23,9,18.38,18c2.92,2.89,4.31,2.46,7.09-.1,24.21-22.41,46.8-46.48,70.66-69.25C357,404.3,368.5,383.09,366.81,357.26Zm-25.19,19.15c-5.2,17.45-21.9,29.15-34.16,42-13.36,13-26.8,26-40.12,39-2,2-3,2-5,.07-21.93-23.13-47.24-43.37-67.51-67.92-17-22.8-7.87-61,26.15-59.35,16.59-.16,31.13,11.9,41.88,24.2,1.69,2,2.65,1.78,4.16,0,13.09-15.91,32.82-28.59,54-22.91C339.74,335.7,348,359.53,341.62,376.41Z" transform="translate(-77.79 -26.95)"/></svg>